<svg xmlns="http://www.w3.org/2000/svg" width="1200" height="630" viewBox="0 0 1200 630">
  <defs>
    <linearGradient id="bg" x1="0" y1="0" x2="1" y2="1">
      <stop offset="0" stop-color="#150f24"/><stop offset="1" stop-color="#271a48"/>
    </linearGradient>
    <linearGradient id="accgrad" x1="0" y1="1" x2="1" y2="0">
      <stop offset="0" stop-color="#b58cff"/><stop offset="1" stop-color="#4f8cff"/>
    </linearGradient>
    <radialGradient id="glowA" cx="0.5" cy="0.5" r="0.5">
      <stop offset="0" stop-color="#b58cff" stop-opacity="0.45"/><stop offset="1" stop-color="#b58cff" stop-opacity="0"/>
    </radialGradient>
    <radialGradient id="glowB" cx="0.5" cy="0.5" r="0.5">
      <stop offset="0" stop-color="#4f8cff" stop-opacity="0.35"/><stop offset="1" stop-color="#4f8cff" stop-opacity="0"/>
    </radialGradient>
  </defs>
  <rect width="1200" height="630" fill="url(#bg)"/>
  <line x1="48" y1="0" x2="48" y2="630" stroke="#b0a4cc" stroke-opacity="0.035" stroke-width="1"/><line x1="96" y1="0" x2="96" y2="630" stroke="#b0a4cc" stroke-opacity="0.035" stroke-width="1"/><line x1="144" y1="0" x2="144" y2="630" stroke="#b0a4cc" stroke-opacity="0.035" stroke-width="1"/><line x1="192" y1="0" x2="192" y2="630" stroke="#b0a4cc" stroke-opacity="0.035" stroke-width="1"/><line x1="240" y1="0" x2="240" y2="630" stroke="#b0a4cc" stroke-opacity="0.035" stroke-width="1"/><line x1="288" y1="0" x2="288" y2="630" stroke="#b0a4cc" stroke-opacity="0.035" stroke-width="1"/><line x1="336" y1="0" x2="336" y2="630" stroke="#b0a4cc" stroke-opacity="0.035" stroke-width="1"/><line x1="384" y1="0" x2="384" y2="630" stroke="#b0a4cc" stroke-opacity="0.035" stroke-width="1"/><line x1="432" y1="0" x2="432" y2="630" stroke="#b0a4cc" stroke-opacity="0.035" stroke-width="1"/><line x1="480" y1="0" x2="480" y2="630" stroke="#b0a4cc" stroke-opacity="0.035" stroke-width="1"/><line x1="528" y1="0" x2="528" y2="630" stroke="#b0a4cc" stroke-opacity="0.035" stroke-width="1"/><line x1="576" y1="0" x2="576" y2="630" stroke="#b0a4cc" stroke-opacity="0.035" stroke-width="1"/><line x1="624" y1="0" x2="624" y2="630" stroke="#b0a4cc" stroke-opacity="0.035" stroke-width="1"/><line x1="672" y1="0" x2="672" y2="630" stroke="#b0a4cc" stroke-opacity="0.035" stroke-width="1"/><line x1="720" y1="0" x2="720" y2="630" stroke="#b0a4cc" stroke-opacity="0.035" stroke-width="1"/><line x1="768" y1="0" x2="768" y2="630" stroke="#b0a4cc" stroke-opacity="0.035" stroke-width="1"/><line x1="816" y1="0" x2="816" y2="630" stroke="#b0a4cc" stroke-opacity="0.035" stroke-width="1"/><line x1="864" y1="0" x2="864" y2="630" stroke="#b0a4cc" stroke-opacity="0.035" stroke-width="1"/><line x1="912" y1="0" x2="912" y2="630" stroke="#b0a4cc" stroke-opacity="0.035" stroke-width="1"/><line x1="960" y1="0" x2="960" y2="630" stroke="#b0a4cc" stroke-opacity="0.035" stroke-width="1"/><line x1="1008" y1="0" x2="1008" y2="630" stroke="#b0a4cc" stroke-opacity="0.035" stroke-width="1"/><line x1="1056" y1="0" x2="1056" y2="630" stroke="#b0a4cc" stroke-opacity="0.035" stroke-width="1"/><line x1="1104" y1="0" x2="1104" y2="630" stroke="#b0a4cc" stroke-opacity="0.035" stroke-width="1"/><line x1="1152" y1="0" x2="1152" y2="630" stroke="#b0a4cc" stroke-opacity="0.035" stroke-width="1"/><line x1="0" y1="48" x2="1200" y2="48" stroke="#b0a4cc" stroke-opacity="0.035" stroke-width="1"/><line x1="0" y1="96" x2="1200" y2="96" stroke="#b0a4cc" stroke-opacity="0.035" stroke-width="1"/><line x1="0" y1="144" x2="1200" y2="144" stroke="#b0a4cc" stroke-opacity="0.035" stroke-width="1"/><line x1="0" y1="192" x2="1200" y2="192" stroke="#b0a4cc" stroke-opacity="0.035" stroke-width="1"/><line x1="0" y1="240" x2="1200" y2="240" stroke="#b0a4cc" stroke-opacity="0.035" stroke-width="1"/><line x1="0" y1="288" x2="1200" y2="288" stroke="#b0a4cc" stroke-opacity="0.035" stroke-width="1"/><line x1="0" y1="336" x2="1200" y2="336" stroke="#b0a4cc" stroke-opacity="0.035" stroke-width="1"/><line x1="0" y1="384" x2="1200" y2="384" stroke="#b0a4cc" stroke-opacity="0.035" stroke-width="1"/><line x1="0" y1="432" x2="1200" y2="432" stroke="#b0a4cc" stroke-opacity="0.035" stroke-width="1"/><line x1="0" y1="480" x2="1200" y2="480" stroke="#b0a4cc" stroke-opacity="0.035" stroke-width="1"/><line x1="0" y1="528" x2="1200" y2="528" stroke="#b0a4cc" stroke-opacity="0.035" stroke-width="1"/><line x1="0" y1="576" x2="1200" y2="576" stroke="#b0a4cc" stroke-opacity="0.035" stroke-width="1"/><line x1="0" y1="624" x2="1200" y2="624" stroke="#b0a4cc" stroke-opacity="0.035" stroke-width="1"/>
  <text x="948" y="486" text-anchor="middle" font-family="'SF Mono', 'Menlo', 'DejaVu Sans Mono', 'Liberation Mono', monospace" font-size="330" font-weight="700" fill="#b58cff" fill-opacity="0.05">{ }</text>
  <circle cx="1080" cy="540" r="420" fill="url(#glowA)"/>
  <circle cx="120" cy="120" r="320" fill="url(#glowB)"/>
  <rect x="706.0" y="200.0" width="452" height="262" rx="16" fill="#000" fill-opacity="0.30"/><rect x="700" y="190" width="452" height="262" rx="16" fill="#150f24" fill-opacity="0.72" stroke="#b58cff" stroke-opacity="0.35" stroke-width="1.5"/><rect x="700" y="190" width="452" height="42" rx="16" fill="#b58cff" fill-opacity="0.08"/><circle cx="722" cy="211" r="5" fill="#ff5f57"/><circle cx="742" cy="211" r="5" fill="#febc2e"/><circle cx="762" cy="211" r="5" fill="#28c840"/><text x="1126" y="216" text-anchor="end" font-family="'SF Mono', 'Menlo', 'DejaVu Sans Mono', 'Liberation Mono', monospace" font-size="14" fill="#b0a4cc" fill-opacity="0.8">GET · 200 · no key</text><text x="726" y="268" xml:space="preserve" font-family="'SF Mono', 'Menlo', 'DejaVu Sans Mono', 'Liberation Mono', monospace" font-size="21" font-weight="500"><tspan fill="#b58cff">$ curl</tspan> <tspan fill="#b0a4cc">-s \</tspan></text><text x="726" y="298" xml:space="preserve" font-family="'SF Mono', 'Menlo', 'DejaVu Sans Mono', 'Liberation Mono', monospace" font-size="21" font-weight="500"><tspan fill="#f7f4fb">  https://api.example.com</tspan></text><text x="726" y="328" xml:space="preserve" font-family="'SF Mono', 'Menlo', 'DejaVu Sans Mono', 'Liberation Mono', monospace" font-size="21" font-weight="500"><tspan fill="#b0a4cc">{</tspan></text><text x="726" y="358" xml:space="preserve" font-family="'SF Mono', 'Menlo', 'DejaVu Sans Mono', 'Liberation Mono', monospace" font-size="21" font-weight="500"><tspan fill="#4f8cff">  "results"</tspan><tspan fill="#b0a4cc">: [ … ],</tspan></text><text x="726" y="388" xml:space="preserve" font-family="'SF Mono', 'Menlo', 'DejaVu Sans Mono', 'Liberation Mono', monospace" font-size="21" font-weight="500"><tspan fill="#4f8cff">  "total"</tspan><tspan fill="#b0a4cc">: </tspan><tspan fill="#f7f4fb">160,413</tspan></text><text x="726" y="418" xml:space="preserve" font-family="'SF Mono', 'Menlo', 'DejaVu Sans Mono', 'Liberation Mono', monospace" font-size="21" font-weight="500"><tspan fill="#b0a4cc">}</tspan></text>
  <rect x="80" y="74" width="340" height="40" rx="20" fill="#b58cff" fill-opacity="0.12" stroke="#b58cff" stroke-opacity="0.5"/><circle cx="102" cy="94" r="5" fill="#b58cff"/><text x="120" y="101" font-family="'Helvetica Neue', Helvetica, Arial, 'Liberation Sans', sans-serif" font-size="22" font-weight="700" letter-spacing="2.5" fill="#b58cff">SECURITY DATA HOW-TO</text>
  <text x="82.0" y="289.4" font-family="'Helvetica Neue', Helvetica, Arial, 'Liberation Sans', sans-serif" font-size="58" font-weight="800" fill="#000" fill-opacity="0.28" letter-spacing="-1">npm, PyPI &amp;</text><text x="80" y="287.35" font-family="'Helvetica Neue', Helvetica, Arial, 'Liberation Sans', sans-serif" font-size="58" font-weight="800" letter-spacing="-1"><tspan fill="#f7f4fb">npm,</tspan> <tspan fill="#f7f4fb">PyPI</tspan> <tspan fill="#f7f4fb">&amp;</tspan></text><text x="82.0" y="356.1" font-family="'Helvetica Neue', Helvetica, Arial, 'Liberation Sans', sans-serif" font-size="58" font-weight="800" fill="#000" fill-opacity="0.28" letter-spacing="-1">crates.io Erase</text><text x="80" y="354.05" font-family="'Helvetica Neue', Helvetica, Arial, 'Liberation Sans', sans-serif" font-size="58" font-weight="800" letter-spacing="-1"><tspan fill="#f7f4fb">crates.io</tspan> <tspan fill="#f7f4fb">Erase</tspan></text><text x="82.0" y="422.8" font-family="'Helvetica Neue', Helvetica, Arial, 'Liberation Sans', sans-serif" font-size="58" font-weight="800" fill="#000" fill-opacity="0.28" letter-spacing="-1">Malware Evidence</text><text x="80" y="420.75" font-family="'Helvetica Neue', Helvetica, Arial, 'Liberation Sans', sans-serif" font-size="58" font-weight="800" letter-spacing="-1"><tspan fill="#f7f4fb">Malware</tspan> <tspan fill="#f7f4fb">Evidence</tspan></text>
  <rect x="80" y="446.8" width="132" height="5" rx="2.5" fill="url(#accgrad)"/>
  <circle cx="87" cy="576" r="5" fill="#b58cff"/><text x="104" y="584" font-family="'Helvetica Neue', Helvetica, Arial, 'Liberation Sans', sans-serif" font-size="23" font-weight="600" fill="#b0a4cc">keyless · registry metadata</text>
  <rect x="1104" y="74" width="46" height="46" rx="12" fill="none" stroke="#b58cff" stroke-opacity="0.6" stroke-width="2"/><circle cx="1119" cy="105" r="4" fill="#b58cff"/><circle cx="1135" cy="89" r="4" fill="#4f8cff"/><line x1="1119" y1="105" x2="1135" y2="89" stroke="#b58cff" stroke-opacity="0.7" stroke-width="2"/>
</svg>